Output #0, mpeg, to '02.mpg':
    Stream #0:0: Video: mpeg1video, yuv420p, 640x480, q=2-31, 400 kb/s, 25 tbn
[mpeg @ 0x55555aa566f0] VBV buffer size not set, using default size of 230KB
If you want the mpeg file to be compliant to some specification
Like DVD, VCD or others, make sure you set the correct buffer size
pts:0 pts_time:0 dts:-3600 dts_time:-0.04 duration:0 duration_time:0 stream_index:0
[mpeg @ 0x55555aa566f0] buffer underflow st=0 bufi=11564 size=16789
[mpeg @ 0x55555aa566f0] buffer underflow st=0 bufi=13605 size=16789
[mpeg @ 0x55555aa566f0] buffer underflow st=0 bufi=15646 size=16789
pts:3600 pts_time:0.04 dts:0 dts_time:0 duration:0 duration_time:0 stream_index:0
[mpeg @ 0x55555aa566f0] buffer underflow st=0 bufi=889 size=21095
[mpeg @ 0x55555aa566f0] buffer underflow st=0 bufi=2930 size=21095
[mpeg @ 0x55555aa566f0] buffer underflow st=0 bufi=4971 size=21095
[mpeg @ 0x55555aa566f0] buffer underflow st=0 bufi=7012 size=21095
[mpeg @ 0x55555aa566f0] buffer underflow st=0 bufi=9053 size=21095
[mpeg @ 0x55555aa566f0] buffer underflow st=0 bufi=11094 size=21095
[mpeg @ 0x55555aa566f0] buffer underflow st=0 bufi=13135 size=21095
[mpeg @ 0x55555aa566f0] buffer underflow st=0 bufi=15176 size=21095
[mpeg @ 0x55555aa566f0] buffer underflow st=0 bufi=17217 size=21095
[mpeg @ 0x55555aa566f0] buffer underflow st=0 bufi=19258 size=21095
pts:7200 pts_time:0.08 dts:3600 dts_time:0.04 duration:0 duration_time:0 stream_index:0
[mpeg @ 0x55555aa566f0] buffer underflow st=0 bufi=195 size=4716
[mpeg @ 0x55555aa566f0] buffer underflow st=0 bufi=2236 size=4716
[mpeg @ 0x55555aa566f0] buffer underflow st=0 bufi=4277 size=4716
pts:10800 pts_time:0.12 dts:7200 dts_time:0.08 duration:0 duration_time:0 stream_index:0
[mpeg @ 0x55555aa566f0] buffer underflow st=0 bufi=1593 size=3497
pts:14400 pts_time:0.16 dts:10800 dts_time:0.12 duration:0 duration_time:0 stream_index:0
[mpeg @ 0x55555aa566f0] buffer underflow st=0 bufi=128 size=3856
[mpeg @ 0x55555aa566f0] buffer underflow st=0 bufi=2169 size=3856
pts:18000 pts_time:0.2 dts:14400 dts_time:0.16 duration:0 duration_time:0 stream_index:0
[mpeg @ 0x55555aa566f0] buffer underflow st=0 bufi=345 size=3493
[mpeg @ 0x55555aa566f0] buffer underflow st=0 bufi=2386 size=3493
pts:21600 pts_time:0.24 dts:18000 dts_time:0.2 duration:0 duration_time:0 stream_index:0
[mpeg @ 0x55555aa566f0] buffer underflow st=0 bufi=925 size=2982
[mpeg @ 0x55555aa566f0] buffer underflow st=0 bufi=2966 size=2982
pts:25200 pts_time:0.28 dts:21600 dts_time:0.24 duration:0 duration_time:0 stream_index:0
[mpeg @ 0x55555aa566f0] buffer underflow st=0 bufi=2016 size=2574
pts:28800 pts_time:0.32 dts:25200 dts_time:0.28 duration:0 duration_time:0 stream_index:0
[mpeg @ 0x55555aa566f0] buffer underflow st=0 bufi=1474 size=1916
pts:32400 pts_time:0.36 dts:28800 dts_time:0.32 duration:0 duration_time:0 stream_index:0
[mpeg @ 0x55555aa566f0] buffer underflow st=0 bufi=1590 size=17606
[mpeg @ 0x55555aa566f0] buffer underflow st=0 bufi=3631 size=17606
[mpeg @ 0x55555aa566f0] buffer underflow st=0 bufi=5672 size=17606
[mpeg @ 0x55555aa566f0] buffer underflow st=0 bufi=7713 size=17606
[mpeg @ 0x55555aa566f0] buffer underflow st=0 bufi=9754 size=17606
[mpeg @ 0x55555aa566f0] buffer underflow st=0 bufi=11795 size=17606
[mpeg @ 0x55555aa566f0] buffer underflow st=0 bufi=13836 size=17606
[mpeg @ 0x55555aa566f0] buffer underflow st=0 bufi=15877 size=17606
pts:36000 pts_time:0.4 dts:32400 dts_time:0.36 duration:0 duration_time:0 stream_index:0
[mpeg @ 0x55555aa566f0] buffer underflow st=0 bufi=303 size=2712
[mpeg @ 0x55555aa566f0] buffer underflow st=0 bufi=2344 size=2712
pts:39600 pts_time:0.44 dts:36000 dts_time:0.4 duration:0 duration_time:0 stream_index:0
[mpeg @ 0x55555aa566f0] buffer underflow st=0 bufi=1664 size=22961
[mpeg @ 0x55555aa566f0] buffer underflow st=0 bufi=3705 size=22961
[mpeg @ 0x55555aa566f0] buffer underflow st=0 bufi=5746 size=22961
[mpeg @ 0x55555aa566f0] buffer underflow st=0 bufi=7775 size=22961
[mpeg @ 0x55555aa566f0] buffer underflow st=0 bufi=9816 size=22961
[mpeg @ 0x55555aa566f0] buffer underflow st=0 bufi=11857 size=22961
[mpeg @ 0x55555aa566f0] buffer underflow st=0 bufi=13898 size=22961
[mpeg @ 0x55555aa566f0] buffer underflow st=0 bufi=15939 size=22961
[mpeg @ 0x55555aa566f0] buffer underflow st=0 bufi=17980 size=22961
[mpeg @ 0x55555aa566f0] buffer underflow st=0 bufi=20021 size=22961
[mpeg @ 0x55555aa566f0] buffer underflow st=0 bufi=22062 size=22961
pts:43200 pts_time:0.48 dts:39600 dts_time:0.44 duration:0 duration_time:0 stream_index:0
[mpeg @ 0x55555aa566f0] buffer underflow st=0 bufi=1133 size=2393
pts:46800 pts_time:0.52 dts:43200 dts_time:0.48 duration:0 duration_time:0 stream_index:0
[mpeg @ 0x55555aa566f0] buffer underflow st=0 bufi=772 size=1312
pts:50400 pts_time:0.56 dts:46800 dts_time:0.52 duration:0 duration_time:0 stream_index:0
[mpeg @ 0x55555aa566f0] buffer underflow st=0 bufi=1492 size=2643
pts:54000 pts_time:0.6 dts:50400 dts_time:0.56 duration:0 duration_time:0 stream_index:0
[mpeg @ 0x55555aa566f0] buffer underflow st=0 bufi=881 size=1717
pts:57600 pts_time:0.64 dts:54000 dts_time:0.6 duration:0 duration_time:0 stream_index:0
[mpeg @ 0x55555aa566f0] buffer underflow st=0 bufi=1196 size=1375
pts:61200 pts_time:0.68 dts:57600 dts_time:0.64 duration:0 duration_time:0 stream_index:0
[mpeg @ 0x55555aa566f0] buffer underflow st=0 bufi=1853 size=3911
[mpeg @ 0x55555aa566f0] buffer underflow st=0 bufi=3894 size=3911
pts:64800 pts_time:0.72 dts:61200 dts_time:0.68 duration:0 duration_time:0 stream_index:0
pts:68400 pts_time:0.76 dts:64800 dts_time:0.72 duration:0 duration_time:0 stream_index:0
[mpeg @ 0x55555aa566f0] buffer underflow st=0 bufi=766 size=1638
pts:72000 pts_time:0.8 dts:68400 dts_time:0.76 duration:0 duration_time:0 stream_index:0
[mpeg @ 0x55555aa566f0] buffer underflow st=0 bufi=1160 size=2715
pts:75600 pts_time:0.84 dts:72000 dts_time:0.8 duration:0 duration_time:0 stream_index:0
[mpeg @ 0x55555aa566f0] buffer underflow st=0 bufi=477 size=5191
[mpeg @ 0x55555aa566f0] buffer underflow st=0 bufi=2518 size=5191
[mpeg @ 0x55555aa566f0] buffer underflow st=0 bufi=4559 size=5191
pts:79200 pts_time:0.88 dts:75600 dts_time:0.84 duration:0 duration_time:0 stream_index:0
pts:82800 pts_time:0.92 dts:79200 dts_time:0.88 duration:0 duration_time:0 stream_index:0
[mpeg @ 0x55555aa566f0] buffer underflow st=0 bufi=425 size=19418
[mpeg @ 0x55555aa566f0] buffer underflow st=0 bufi=2466 size=19418
[mpeg @ 0x55555aa566f0] buffer underflow st=0 bufi=4507 size=19418
[mpeg @ 0x55555aa566f0] buffer underflow st=0 bufi=6548 size=19418
[mpeg @ 0x55555aa566f0] buffer underflow st=0 bufi=8589 size=19418
[mpeg @ 0x55555aa566f0] buffer underflow st=0 bufi=10630 size=19418
[mpeg @ 0x55555aa566f0] buffer underflow st=0 bufi=12671 size=19418
[mpeg @ 0x55555aa566f0] buffer underflow st=0 bufi=14712 size=19418
[mpeg @ 0x55555aa566f0] buffer underflow st=0 bufi=16753 size=19418
[mpeg @ 0x55555aa566f0] buffer underflow st=0 bufi=18794 size=19418
pts:86400 pts_time:0.96 dts:82800 dts_time:0.92 duration:0 duration_time:0 stream_index:0
pts:90000 pts_time:1 dts:86400 dts_time:0.96 duration:0 duration_time:0 stream_index:0
[mpeg @ 0x55555aa566f0] buffer underflow st=0 bufi=1029 size=1629
pts:93600 pts_time:1.04 dts:90000 dts_time:1 duration:0 duration_time:0 stream_index:0
[mpeg @ 0x55555aa566f0] buffer underflow st=0 bufi=1432 size=4448
[mpeg @ 0x55555aa566f0] buffer underflow st=0 bufi=3473 size=4448
pts:97200 pts_time:1.08 dts:93600 dts_time:1.04 duration:0 duration_time:0 stream_index:0
[mpeg @ 0x55555aa566f0] buffer underflow st=0 bufi=1057 size=1215
pts:100800 pts_time:1.12 dts:97200 dts_time:1.08 duration:0 duration_time:0 stream_index:0
pts:104400 pts_time:1.16 dts:100800 dts_time:1.12 duration:0 duration_time:0 stream_index:0
[mpeg @ 0x55555aa566f0] buffer underflow st=0 bufi=1198 size=1691
pts:108000 pts_time:1.2 dts:104400 dts_time:1.16 duration:0 duration_time:0 stream_index:0
pts:111600 pts_time:1.24 dts:108000 dts_time:1.2 duration:0 duration_time:0 stream_index:0
[mpeg @ 0x55555aa566f0] buffer underflow st=0 bufi=430 size=1964
pts:115200 pts_time:1.28 dts:111600 dts_time:1.24 duration:0 duration_time:0 stream_index:0
[mpeg @ 0x55555aa566f0] buffer underflow st=0 bufi=498 size=2123
pts:118800 pts_time:1.32 dts:115200 dts_time:1.28 duration:0 duration_time:0 stream_index:0
pts:122400 pts_time:1.36 dts:118800 dts_time:1.32 duration:0 duration_time:0 stream_index:0
[mpeg @ 0x55555aa566f0] buffer underflow st=0 bufi=264 size=2191
pts:126000 pts_time:1.4 dts:122400 dts_time:1.36 duration:0 duration_time:0 stream_index:0
[mpeg @ 0x55555aa566f0] buffer underflow st=0 bufi=105 size=30912
[mpeg @ 0x55555aa566f0] buffer underflow st=0 bufi=2146 size=30912
[mpeg @ 0x55555aa566f0] buffer underflow st=0 bufi=4187 size=30912
[mpeg @ 0x55555aa566f0] buffer underflow st=0 bufi=6228 size=30912
[mpeg @ 0x55555aa566f0] buffer underflow st=0 bufi=8269 size=30912
[mpeg @ 0x55555aa566f0] buffer underflow st=0 bufi=10310 size=30912
[mpeg @ 0x55555aa566f0] buffer underflow st=0 bufi=12351 size=30912
[mpeg @ 0x55555aa566f0] buffer underflow st=0 bufi=14392 size=30912
[mpeg @ 0x55555aa566f0] buffer underflow st=0 bufi=16433 size=30912
[mpeg @ 0x55555aa566f0] buffer underflow st=0 bufi=18474 size=30912
[mpeg @ 0x55555aa566f0] buffer underflow st=0 bufi=20515 size=30912
[mpeg @ 0x55555aa566f0] buffer underflow st=0 bufi=22556 size=30912
[mpeg @ 0x55555aa566f0] buffer underflow st=0 bufi=24597 size=30912
[mpeg @ 0x55555aa566f0] buffer underflow st=0 bufi=26638 size=30912
[mpeg @ 0x55555aa566f0] buffer underflow st=0 bufi=28667 size=30912
[mpeg @ 0x55555aa566f0] buffer underflow st=0 bufi=30708 size=30912
pts:129600 pts_time:1.44 dts:126000 dts_time:1.4 duration:0 duration_time:0 stream_index:0
pts:133200 pts_time:1.48 dts:129600 dts_time:1.44 duration:0 duration_time:0 stream_index:0
pts:136800 pts_time:1.52 dts:133200 dts_time:1.48 duration:0 duration_time:0 stream_index:0
[mpeg @ 0x55555aa566f0] buffer underflow st=0 bufi=1483 size=2786
pts:140400 pts_time:1.56 dts:136800 dts_time:1.52 duration:0 duration_time:0 stream_index:0
pts:144000 pts_time:1.6 dts:140400 dts_time:1.56 duration:0 duration_time:0 stream_index:0
[mpeg @ 0x55555aa566f0] buffer underflow st=0 bufi=411 size=1372
pts:147600 pts_time:1.64 dts:144000 dts_time:1.6 duration:0 duration_time:0 stream_index:0
[mpeg @ 0x55555aa566f0] buffer underflow st=0 bufi=1071 size=4902
[mpeg @ 0x55555aa566f0] buffer underflow st=0 bufi=3112 size=4902
pts:151200 pts_time:1.68 dts:147600 dts_time:1.64 duration:0 duration_time:0 stream_index:0
[mpeg @ 0x55555aa566f0] buffer underflow st=0 bufi=242 size=1109
pts:154800 pts_time:1.72 dts:151200 dts_time:1.68 duration:0 duration_time:0 stream_index:0
pts:158400 pts_time:1.76 dts:154800 dts_time:1.72 duration:0 duration_time:0 stream_index:0
[mpeg @ 0x55555aa566f0] buffer underflow st=0 bufi=590 size=1011
pts:162000 pts_time:1.8 dts:158400 dts_time:1.76 duration:0 duration_time:0 stream_index:0
[mpeg @ 0x55555aa566f0] buffer underflow st=0 bufi=1611 size=1726
pts:165600 pts_time:1.84 dts:162000 dts_time:1.8 duration:0 duration_time:0 stream_index:0
pts:169200 pts_time:1.88 dts:165600 dts_time:1.84 duration:0 duration_time:0 stream_index:0
[mpeg @ 0x55555aa566f0] buffer underflow st=0 bufi=339 size=25900
[mpeg @ 0x55555aa566f0] buffer underflow st=0 bufi=2380 size=25900
[mpeg @ 0x55555aa566f0] buffer underflow st=0 bufi=4421 size=25900
[mpeg @ 0x55555aa566f0] buffer underflow st=0 bufi=6462 size=25900
[mpeg @ 0x55555aa566f0] buffer underflow st=0 bufi=8503 size=25900
[mpeg @ 0x55555aa566f0] buffer underflow st=0 bufi=10544 size=25900
[mpeg @ 0x55555aa566f0] buffer underflow st=0 bufi=12585 size=25900
[mpeg @ 0x55555aa566f0] buffer underflow st=0 bufi=14626 size=25900
[mpeg @ 0x55555aa566f0] buffer underflow st=0 bufi=16667 size=25900
[mpeg @ 0x55555aa566f0] buffer underflow st=0 bufi=18708 size=25900
[mpeg @ 0x55555aa566f0] buffer underflow st=0 bufi=20749 size=25900
[mpeg @ 0x55555aa566f0] buffer underflow st=0 bufi=22790 size=25900
[mpeg @ 0x55555aa566f0] buffer underflow st=0 bufi=24831 size=25900
pts:172800 pts_time:1.92 dts:169200 dts_time:1.88 duration:0 duration_time:0 stream_index:0
[mpeg @ 0x55555aa566f0] buffer underflow st=0 bufi=963 size=1086
pts:176400 pts_time:1.96 dts:172800 dts_time:1.92 duration:0 duration_time:0 stream_index:0
pts:180000 pts_time:2 dts:176400 dts_time:1.96 duration:0 duration_time:0 stream_index:0
pts:183600 pts_time:2.04 dts:180000 dts_time:2 duration:0 duration_time:0 stream_index:0
pts:187200 pts_time:2.08 dts:183600 dts_time:2.04 duration:0 duration_time:0 stream_index:0
[mpeg @ 0x55555aa566f0] buffer underflow st=0 bufi=829 size=4516
[mpeg @ 0x55555aa566f0] buffer underflow st=0 bufi=2870 size=4516
pts:190800 pts_time:2.12 dts:187200 dts_time:2.08 duration:0 duration_time:0 stream_index:0
pts:194400 pts_time:2.16 dts:190800 dts_time:2.12 duration:0 duration_time:0 stream_index:0
[mpeg @ 0x55555aa566f0] buffer underflow st=0 bufi=24 size=407
pts:198000 pts_time:2.2 dts:194400 dts_time:2.16 duration:0 duration_time:0 stream_index:0
[mpeg @ 0x55555aa566f0] buffer underflow st=0 bufi=1649 size=1739
pts:201600 pts_time:2.24 dts:198000 dts_time:2.2 duration:0 duration_time:0 stream_index:0
pts:205200 pts_time:2.28 dts:201600 dts_time:2.24 duration:0 duration_time:0 stream_index:0
pts:208800 pts_time:2.32 dts:205200 dts_time:2.28 duration:0 duration_time:0 stream_index:0
[mpeg @ 0x55555aa566f0] buffer underflow st=0 bufi=1767 size=10069
[mpeg @ 0x55555aa566f0] buffer underflow st=0 bufi=3808 size=10069
[mpeg @ 0x55555aa566f0] buffer underflow st=0 bufi=5849 size=10069
[mpeg @ 0x55555aa566f0] buffer underflow st=0 bufi=7890 size=10069
[mpeg @ 0x55555aa566f0] buffer underflow st=0 bufi=9931 size=10069
pts:212400 pts_time:2.36 dts:208800 dts_time:2.32 duration:0 duration_time:0 stream_index:0
[mpeg @ 0x55555aa566f0] buffer underflow st=0 bufi=1894 size=31501
[mpeg @ 0x55555aa566f0] buffer underflow st=0 bufi=3935 size=31501
[mpeg @ 0x55555aa566f0] buffer underflow st=0 bufi=5976 size=31501
[mpeg @ 0x55555aa566f0] buffer underflow st=0 bufi=8017 size=31501
[mpeg @ 0x55555aa566f0] buffer underflow st=0 bufi=10058 size=31501
[mpeg @ 0x55555aa566f0] buffer underflow st=0 bufi=12099 size=31501
[mpeg @ 0x55555aa566f0] buffer underflow st=0 bufi=14140 size=31501
[mpeg @ 0x55555aa566f0] buffer underflow st=0 bufi=16181 size=31501
[mpeg @ 0x55555aa566f0] buffer underflow st=0 bufi=18222 size=31501
[mpeg @ 0x55555aa566f0] buffer underflow st=0 bufi=20263 size=31501
[mpeg @ 0x55555aa566f0] buffer underflow st=0 bufi=22304 size=31501
[mpeg @ 0x55555aa566f0] buffer underflow st=0 bufi=24345 size=31501
[mpeg @ 0x55555aa566f0] buffer underflow st=0 bufi=26386 size=31501
[mpeg @ 0x55555aa566f0] buffer underflow st=0 bufi=28427 size=31501
[mpeg @ 0x55555aa566f0] buffer underflow st=0 bufi=30468 size=31501
pts:216000 pts_time:2.4 dts:212400 dts_time:2.36 duration:0 duration_time:0 stream_index:0
pts:219600 pts_time:2.44 dts:216000 dts_time:2.4 duration:0 duration_time:0 stream_index:0
pts:223200 pts_time:2.48 dts:219600 dts_time:2.44 duration:0 duration_time:0 stream_index:0
[mpeg @ 0x55555aa566f0] buffer underflow st=0 bufi=45 size=835
pts:226800 pts_time:2.52 dts:223200 dts_time:2.48 duration:0 duration_time:0 stream_index:0
pts:230400 pts_time:2.56 dts:226800 dts_time:2.52 duration:0 duration_time:0 stream_index:0
[mpeg @ 0x55555aa566f0] buffer underflow st=0 bufi=585 size=1859
pts:234000 pts_time:2.6 dts:230400 dts_time:2.56 duration:0 duration_time:0 stream_index:0
pts:237600 pts_time:2.64 dts:234000 dts_time:2.6 duration:0 duration_time:0 stream_index:0
[mpeg @ 0x55555aa566f0] buffer underflow st=0 bufi=568 size=966
pts:241200 pts_time:2.68 dts:237600 dts_time:2.64 duration:0 duration_time:0 stream_index:0
pts:244800 pts_time:2.72 dts:241200 dts_time:2.68 duration:0 duration_time:0 stream_index:0
pts:248400 pts_time:2.76 dts:244800 dts_time:2.72 duration:0 duration_time:0 stream_index:0
[mpeg @ 0x55555aa566f0] buffer underflow st=0 bufi=479 size=3343
[mpeg @ 0x55555aa566f0] buffer underflow st=0 bufi=2520 size=3343
pts:252000 pts_time:2.8 dts:248400 dts_time:2.76 duration:0 duration_time:0 stream_index:0
[mpeg @ 0x55555aa566f0] buffer underflow st=0 bufi=1197 size=3162
pts:255600 pts_time:2.84 dts:252000 dts_time:2.8 duration:0 duration_time:0 stream_index:0
[mpeg @ 0x55555aa566f0] buffer underflow st=0 bufi=67 size=22766
[mpeg @ 0x55555aa566f0] buffer underflow st=0 bufi=2108 size=22766
[mpeg @ 0x55555aa566f0] buffer underflow st=0 bufi=4149 size=22766
[mpeg @ 0x55555aa566f0] buffer underflow st=0 bufi=6190 size=22766
[mpeg @ 0x55555aa566f0] buffer underflow st=0 bufi=8231 size=22766
[mpeg @ 0x55555aa566f0] buffer underflow st=0 bufi=10272 size=22766
[mpeg @ 0x55555aa566f0] buffer underflow st=0 bufi=12313 size=22766
[mpeg @ 0x55555aa566f0] buffer underflow st=0 bufi=14354 size=22766
[mpeg @ 0x55555aa566f0] buffer underflow st=0 bufi=16395 size=22766
[mpeg @ 0x55555aa566f0] buffer underflow st=0 bufi=18436 size=22766
[mpeg @ 0x55555aa566f0] buffer underflow st=0 bufi=20477 size=22766
[mpeg @ 0x55555aa566f0] buffer underflow st=0 bufi=22518 size=22766
pts:259200 pts_time:2.88 dts:255600 dts_time:2.84 duration:0 duration_time:0 stream_index:0
pts:262800 pts_time:2.92 dts:259200 dts_time:2.88 duration:0 duration_time:0 stream_index:0
pts:266400 pts_time:2.96 dts:262800 dts_time:2.92 duration:0 duration_time:0 stream_index:0
pts:270000 pts_time:3 dts:266400 dts_time:2.96 duration:0 duration_time:0 stream_index:0
[mpeg @ 0x55555aa566f0] buffer underflow st=0 bufi=1096 size=1518
pts:273600 pts_time:3.04 dts:270000 dts_time:3 duration:0 duration_time:0 stream_index:0
pts:277200 pts_time:3.08 dts:273600 dts_time:3.04 duration:0 duration_time:0 stream_index:0
[mpeg @ 0x55555aa566f0] buffer underflow st=0 bufi=473 size=4596
[mpeg @ 0x55555aa566f0] buffer underflow st=0 bufi=2514 size=4596
[mpeg @ 0x55555aa566f0] buffer underflow st=0 bufi=4555 size=4596
pts:280800 pts_time:3.12 dts:277200 dts_time:3.08 duration:0 duration_time:0 stream_index:0
pts:284400 pts_time:3.16 dts:280800 dts_time:3.12 duration:0 duration_time:0 stream_index:0
pts:288000 pts_time:3.2 dts:284400 dts_time:3.16 duration:0 duration_time:0 stream_index:0
[mpeg @ 0x55555aa566f0] buffer underflow st=0 bufi=426 size=475
pts:291600 pts_time:3.24 dts:288000 dts_time:3.2 duration:0 duration_time:0 stream_index:0
pts:295200 pts_time:3.28 dts:291600 dts_time:3.24 duration:0 duration_time:0 stream_index:0
[mpeg @ 0x55555aa566f0] buffer underflow st=0 bufi=1050 size=2079
pts:298800 pts_time:3.32 dts:295200 dts_time:3.28 duration:0 duration_time:0 stream_index:0
[mpeg @ 0x55555aa566f0] buffer underflow st=0 bufi=1003 size=25110
[mpeg @ 0x55555aa566f0] buffer underflow st=0 bufi=3044 size=25110
[mpeg @ 0x55555aa566f0] buffer underflow st=0 bufi=5085 size=25110
[mpeg @ 0x55555aa566f0] buffer underflow st=0 bufi=7126 size=25110
[mpeg @ 0x55555aa566f0] buffer underflow st=0 bufi=9167 size=25110
[mpeg @ 0x55555aa566f0] buffer underflow st=0 bufi=11208 size=25110
[mpeg @ 0x55555aa566f0] buffer underflow st=0 bufi=13249 size=25110
[mpeg @ 0x55555aa566f0] buffer underflow st=0 bufi=15290 size=25110
[mpeg @ 0x55555aa566f0] buffer underflow st=0 bufi=17331 size=25110
[mpeg @ 0x55555aa566f0] buffer underflow st=0 bufi=19372 size=25110
[mpeg @ 0x55555aa566f0] buffer underflow st=0 bufi=21413 size=25110
[mpeg @ 0x55555aa566f0] buffer underflow st=0 bufi=23454 size=25110
pts:302400 pts_time:3.36 dts:298800 dts_time:3.32 duration:0 duration_time:0 stream_index:0
pts:306000 pts_time:3.4 dts:302400 dts_time:3.36 duration:0 duration_time:0 stream_index:0
[mpeg @ 0x55555aa566f0] buffer underflow st=0 bufi=121 size=219
pts:309600 pts_time:3.44 dts:306000 dts_time:3.4 duration:0 duration_time:0 stream_index:0
pts:313200 pts_time:3.48 dts:309600 dts_time:3.44 duration:0 duration_time:0 stream_index:0
[mpeg @ 0x55555aa566f0] buffer underflow st=0 bufi=1718 size=5520
[mpeg @ 0x55555aa566f0] buffer underflow st=0 bufi=3759 size=5520
pts:316800 pts_time:3.52 dts:313200 dts_time:3.48 duration:0 duration_time:0 stream_index:0
pts:320400 pts_time:3.56 dts:316800 dts_time:3.52 duration:0 duration_time:0 stream_index:0
pts:324000 pts_time:3.6 dts:320400 dts_time:3.56 duration:0 duration_time:0 stream_index:0
[mpeg @ 0x55555aa566f0] buffer underflow st=0 bufi=83 size=126
pts:327600 pts_time:3.64 dts:324000 dts_time:3.6 duration:0 duration_time:0 stream_index:0
[mpeg @ 0x55555aa566f0] buffer underflow st=0 bufi=1989 size=2525
pts:331200 pts_time:3.68 dts:327600 dts_time:3.64 duration:0 duration_time:0 stream_index:0
pts:334800 pts_time:3.72 dts:331200 dts_time:3.68 duration:0 duration_time:0 stream_index:0
[mpeg @ 0x55555aa566f0] buffer underflow st=0 bufi=1396 size=1638
pts:338400 pts_time:3.76 dts:334800 dts_time:3.72 duration:0 duration_time:0 stream_index:0
pts:342000 pts_time:3.8 dts:338400 dts_time:3.76 duration:0 duration_time:0 stream_index:0
[mpeg @ 0x55555aa566f0] buffer underflow st=0 bufi=1676 size=32749
[mpeg @ 0x55555aa566f0] buffer underflow st=0 bufi=3717 size=32749
[mpeg @ 0x55555aa566f0] buffer underflow st=0 bufi=5758 size=32749
[mpeg @ 0x55555aa566f0] buffer underflow st=0 bufi=7799 size=32749
[mpeg @ 0x55555aa566f0] buffer underflow st=0 bufi=9840 size=32749
[mpeg @ 0x55555aa566f0] buffer underflow st=0 bufi=11881 size=32749
[mpeg @ 0x55555aa566f0] buffer underflow st=0 bufi=13922 size=32749
[mpeg @ 0x55555aa566f0] buffer underflow st=0 bufi=15963 size=32749
[mpeg @ 0x55555aa566f0] buffer underflow st=0 bufi=18004 size=32749
[mpeg @ 0x55555aa566f0] buffer underflow st=0 bufi=20045 size=32749
[mpeg @ 0x55555aa566f0] buffer underflow st=0 bufi=22086 size=32749
[mpeg @ 0x55555aa566f0] buffer underflow st=0 bufi=24127 size=32749
[mpeg @ 0x55555aa566f0] buffer underflow st=0 bufi=26168 size=32749
[mpeg @ 0x55555aa566f0] buffer underflow st=0 bufi=28209 size=32749
[mpeg @ 0x55555aa566f0] buffer underflow st=0 bufi=30250 size=32749
[mpeg @ 0x55555aa566f0] buffer underflow st=0 bufi=32279 size=32749
pts:345600 pts_time:3.84 dts:342000 dts_time:3.8 duration:0 duration_time:0 stream_index:0
pts:349200 pts_time:3.88 dts:345600 dts_time:3.84 duration:0 duration_time:0 stream_index:0
[mpeg @ 0x55555aa566f0] buffer underflow st=0 bufi=1248 size=4762
[mpeg @ 0x55555aa566f0] buffer underflow st=0 bufi=3289 size=4762
pts:352800 pts_time:3.92 dts:349200 dts_time:3.88 duration:0 duration_time:0 stream_index:0
[mpeg @ 0x55555aa566f0] buffer underflow st=0 bufi=559 size=970
pts:356400 pts_time:3.96 dts:352800 dts_time:3.92 duration:0 duration_time:0 stream_index:0
pts:360000 pts_time:4 dts:356400 dts_time:3.96 duration:0 duration_time:0 stream_index:0
[mpeg @ 0x55555aa566f0] buffer underflow st=0 bufi=1490 size=25782
[mpeg @ 0x55555aa566f0] buffer underflow st=0 bufi=3531 size=25782
[mpeg @ 0x55555aa566f0] buffer underflow st=0 bufi=5572 size=25782
[mpeg @ 0x55555aa566f0] buffer underflow st=0 bufi=7613 size=25782
[mpeg @ 0x55555aa566f0] buffer underflow st=0 bufi=9654 size=25782
[mpeg @ 0x55555aa566f0] buffer underflow st=0 bufi=11695 size=25782
[mpeg @ 0x55555aa566f0] buffer underflow st=0 bufi=13736 size=25782
[mpeg @ 0x55555aa566f0] buffer underflow st=0 bufi=15777 size=25782
[mpeg @ 0x55555aa566f0] buffer underflow st=0 bufi=17818 size=25782
[mpeg @ 0x55555aa566f0] buffer underflow st=0 bufi=19859 size=25782
[mpeg @ 0x55555aa566f0] buffer underflow st=0 bufi=21900 size=25782
[mpeg @ 0x55555aa566f0] buffer underflow st=0 bufi=23941 size=25782
pts:363600 pts_time:4.04 dts:360000 dts_time:4 duration:0 duration_time:0 stream_index:0
[mpeg @ 0x55555aa566f0] buffer underflow st=0 bufi=191 size=4828
[mpeg @ 0x55555aa566f0] buffer underflow st=0 bufi=2232 size=4828
[mpeg @ 0x55555aa566f0] buffer underflow st=0 bufi=4273 size=4828
pts:367200 pts_time:4.08 dts:363600 dts_time:4.04 duration:0 duration_time:0 stream_index:0
[mpeg @ 0x55555aa566f0] buffer underflow st=0 bufi=1477 size=4806
[mpeg @ 0x55555aa566f0] buffer underflow st=0 bufi=3518 size=4806
pts:370800 pts_time:4.12 dts:367200 dts_time:4.08 duration:0 duration_time:0 stream_index:0
[mpeg @ 0x55555aa566f0] buffer underflow st=0 bufi=744 size=2825
[mpeg @ 0x55555aa566f0] buffer underflow st=0 bufi=2785 size=2825
pts:374400 pts_time:4.16 dts:370800 dts_time:4.12 duration:0 duration_time:0 stream_index:0
[mpeg @ 0x55555aa566f0] buffer underflow st=0 bufi=1992 size=3210
pts:378000 pts_time:4.2 dts:374400 dts_time:4.16 duration:0 duration_time:0 stream_index:0
[mpeg @ 0x55555aa566f0] buffer underflow st=0 bufi=814 size=3714
[mpeg @ 0x55555aa566f0] buffer underflow st=0 bufi=2855 size=3714
pts:381600 pts_time:4.24 dts:378000 dts_time:4.2 duration:0 duration_time:0 stream_index:0
[mpeg @ 0x55555aa566f0] buffer underflow st=0 bufi=1173 size=2172
pts:385200 pts_time:4.28 dts:381600 dts_time:4.24 duration:0 duration_time:0 stream_index:0
[mpeg @ 0x55555aa566f0] buffer underflow st=0 bufi=1033 size=17658
[mpeg @ 0x55555aa566f0] buffer underflow st=0 bufi=3074 size=17658
[mpeg @ 0x55555aa566f0] buffer underflow st=0 bufi=5115 size=17658
[mpeg @ 0x55555aa566f0] buffer underflow st=0 bufi=7156 size=17658
[mpeg @ 0x55555aa566f0] buffer underflow st=0 bufi=9197 size=17658
[mpeg @ 0x55555aa566f0] buffer underflow st=0 bufi=11238 size=17658
[mpeg @ 0x55555aa566f0] buffer underflow st=0 bufi=13279 size=17658
[mpeg @ 0x55555aa566f0] buffer underflow st=0 bufi=15320 size=17658
[mpeg @ 0x55555aa566f0] buffer underflow st=0 bufi=17361 size=17658
pts:388800 pts_time:4.32 dts:385200 dts_time:4.28 duration:0 duration_time:0 stream_index:0
[mpeg @ 0x55555aa566f0] buffer underflow st=0 bufi=1735 size=4470
[mpeg @ 0x55555aa566f0] buffer underflow st=0 bufi=3776 size=4470
pts:392400 pts_time:4.36 dts:388800 dts_time:4.32 duration:0 duration_time:0 stream_index:0
[mpeg @ 0x55555aa566f0] buffer underflow st=0 bufi=1338 size=2018
pts:396000 pts_time:4.4 dts:392400 dts_time:4.36 duration:0 duration_time:0 stream_index:0
[mpeg @ 0x55555aa566f0] buffer underflow st=0 bufi=1352 size=2204
pts:399600 pts_time:4.44 dts:396000 dts_time:4.4 duration:0 duration_time:0 stream_index:0
[mpeg @ 0x55555aa566f0] buffer underflow st=0 bufi=1180 size=2505
pts:403200 pts_time:4.48 dts:399600 dts_time:4.44 duration:0 duration_time:0 stream_index:0
[mpeg @ 0x55555aa566f0] buffer underflow st=0 bufi=707 size=3286
[mpeg @ 0x55555aa566f0] buffer underflow st=0 bufi=2748 size=3286
pts:406800 pts_time:4.52 dts:403200 dts_time:4.48 duration:0 duration_time:0 stream_index:0
[mpeg @ 0x55555aa566f0] buffer underflow st=0 bufi=1494 size=2344
pts:410400 pts_time:4.56 dts:406800 dts_time:4.52 duration:0 duration_time:0 stream_index:0
[mpeg @ 0x55555aa566f0] buffer underflow st=0 bufi=1182 size=1904
pts:414000 pts_time:4.6 dts:410400 dts_time:4.56 duration:0 duration_time:0 stream_index:0
[mpeg @ 0x55555aa566f0] buffer underflow st=0 bufi=1310 size=3093
pts:417600 pts_time:4.64 dts:414000 dts_time:4.6 duration:0 duration_time:0 stream_index:0
[mpeg @ 0x55555aa566f0] buffer underflow st=0 bufi=249 size=2155
pts:421200 pts_time:4.68 dts:417600 dts_time:4.64 duration:0 duration_time:0 stream_index:0
[mpeg @ 0x55555aa566f0] buffer underflow st=0 bufi=126 size=1677
pts:424800 pts_time:4.72 dts:421200 dts_time:4.68 duration:0 duration_time:0 stream_index:0
[mpeg @ 0x55555aa566f0] buffer underflow st=0 bufi=481 size=3173
[mpeg @ 0x55555aa566f0] buffer underflow st=0 bufi=2522 size=3173
pts:428400 pts_time:4.76 dts:424800 dts_time:4.72 duration:0 duration_time:0 stream_index:0
[mpeg @ 0x55555aa566f0] buffer underflow st=0 bufi=1381 size=11292
[mpeg @ 0x55555aa566f0] buffer underflow st=0 bufi=3422 size=11292
[mpeg @ 0x55555aa566f0] buffer underflow st=0 bufi=5436 size=11292
[mpeg @ 0x55555aa566f0] buffer underflow st=0 bufi=7477 size=11292
[mpeg @ 0x55555aa566f0] buffer underflow st=0 bufi=9518 size=11292
pts:432000 pts_time:4.8 dts:428400 dts_time:4.76 duration:0 duration_time:0 stream_index:0
[mpeg @ 0x55555aa566f0] buffer underflow st=0 bufi=258 size=1959
pts:435600 pts_time:4.84 dts:432000 dts_time:4.8 duration:0 duration_time:0 stream_index:0
[mpeg @ 0x55555aa566f0] buffer underflow st=0 bufi=331 size=2859
[mpeg @ 0x55555aa566f0] buffer underflow st=0 bufi=2372 size=2859
pts:439200 pts_time:4.88 dts:435600 dts_time:4.84 duration:0 duration_time:0 stream_index:0
[mpeg @ 0x55555aa566f0] buffer underflow st=0 bufi=1545 size=2624
pts:442800 pts_time:4.92 dts:439200 dts_time:4.88 duration:0 duration_time:0 stream_index:0
[mpeg @ 0x55555aa566f0] buffer underflow st=0 bufi=953 size=2538
pts:446400 pts_time:4.96 dts:442800 dts_time:4.92 duration:0 duration_time:0 stream_index:0
[mpeg @ 0x55555aa566f0] buffer underflow st=0 bufi=447 size=3195
[mpeg @ 0x55555aa566f0] buffer underflow st=0 bufi=2488 size=3195
pts:450000 pts_time:5 dts:446400 dts_time:4.96 duration:0 duration_time:0 stream_index:0
[mpeg @ 0x55555aa566f0] buffer underflow st=0 bufi=1325 size=2190
pts:453600 pts_time:5.04 dts:450000 dts_time:5 duration:0 duration_time:0 stream_index:0
[mpeg @ 0x55555aa566f0] buffer underflow st=0 bufi=1167 size=2027
pts:457200 pts_time:5.08 dts:453600 dts_time:5.04 duration:0 duration_time:0 stream_index:0
[mpeg @ 0x55555aa566f0] buffer underflow st=0 bufi=1172 size=2432
pts:460800 pts_time:5.12 dts:457200 dts_time:5.08 duration:0 duration_time:0 stream_index:0
[mpeg @ 0x55555aa566f0] buffer underflow st=0 bufi=772 size=2162
pts:464400 pts_time:5.16 dts:460800 dts_time:5.12 duration:0 duration_time:0 stream_index:0
[mpeg @ 0x55555aa566f0] buffer underflow st=0 bufi=642 size=2546
pts:468000 pts_time:5.2 dts:464400 dts_time:5.16 duration:0 duration_time:0 stream_index:0
[mpeg @ 0x55555aa566f0] buffer underflow st=0 bufi=128 size=3219
[mpeg @ 0x55555aa566f0] buffer underflow st=0 bufi=2169 size=3219
pts:471600 pts_time:5.24 dts:468000 dts_time:5.2 duration:0 duration_time:0 stream_index:0
[mpeg @ 0x55555aa566f0] buffer underflow st=0 bufi=982 size=10404
[mpeg @ 0x55555aa566f0] buffer underflow st=0 bufi=3023 size=10404
[mpeg @ 0x55555aa566f0] buffer underflow st=0 bufi=5064 size=10404
[mpeg @ 0x55555aa566f0] buffer underflow st=0 bufi=7105 size=10404
[mpeg @ 0x55555aa566f0] buffer underflow st=0 bufi=9146 size=10404
pts:475200 pts_time:5.28 dts:471600 dts_time:5.24 duration:0 duration_time:0 stream_index:0
[mpeg @ 0x55555aa566f0] buffer underflow st=0 bufi=774 size=3039
[mpeg @ 0x55555aa566f0] buffer underflow st=0 bufi=2815 size=3039
pts:478800 pts_time:5.32 dts:475200 dts_time:5.28 duration:0 duration_time:0 stream_index:0
[mpeg @ 0x55555aa566f0] buffer underflow st=0 bufi=1808 size=2217
pts:482400 pts_time:5.36 dts:478800 dts_time:5.32 duration:0 duration_time:0 stream_index:0
[mpeg @ 0x55555aa566f0] buffer underflow st=0 bufi=1623 size=3336
pts:486000 pts_time:5.4 dts:482400 dts_time:5.36 duration:0 duration_time:0 stream_index:0
[mpeg @ 0x55555aa566f0] buffer underflow st=0 bufi=319 size=1940
pts:489600 pts_time:5.44 dts:486000 dts_time:5.4 duration:0 duration_time:0 stream_index:0
[mpeg @ 0x55555aa566f0] buffer underflow st=0 bufi=411 size=3007
[mpeg @ 0x55555aa566f0] buffer underflow st=0 bufi=2452 size=3007
pts:493200 pts_time:5.48 dts:489600 dts_time:5.44 duration:0 duration_time:0 stream_index:0
[mpeg @ 0x55555aa566f0] buffer underflow st=0 bufi=1477 size=2744
pts:496800 pts_time:5.52 dts:493200 dts_time:5.48 duration:0 duration_time:0 stream_index:0
[mpeg @ 0x55555aa566f0] buffer underflow st=0 bufi=765 size=2499
pts:500400 pts_time:5.56 dts:496800 dts_time:5.52 duration:0 duration_time:0 stream_index:0
[mpeg @ 0x55555aa566f0] buffer underflow st=0 bufi=298 size=3043
[mpeg @ 0x55555aa566f0] buffer underflow st=0 bufi=2339 size=3043
pts:504000 pts_time:5.6 dts:500400 dts_time:5.56 duration:0 duration_time:0 stream_index:0
[mpeg @ 0x55555aa566f0] buffer underflow st=0 bufi=1328 size=2392
pts:507600 pts_time:5.64 dts:504000 dts_time:5.6 duration:0 duration_time:0 stream_index:0
[mpeg @ 0x55555aa566f0] buffer underflow st=0 bufi=968 size=1743
pts:511200 pts_time:5.68 dts:507600 dts_time:5.64 duration:0 duration_time:0 stream_index:0
[mpeg @ 0x55555aa566f0] buffer underflow st=0 bufi=1257 size=3192
pts:514800 pts_time:5.72 dts:511200 dts_time:5.68 duration:0 duration_time:0 stream_index:0
[mpeg @ 0x55555aa566f0] buffer underflow st=0 bufi=97 size=8903
[mpeg @ 0x55555aa566f0] buffer underflow st=0 bufi=2138 size=8903
[mpeg @ 0x55555aa566f0] buffer underflow st=0 bufi=4179 size=8903
[mpeg @ 0x55555aa566f0] buffer underflow st=0 bufi=6220 size=8903
[mpeg @ 0x55555aa566f0] buffer underflow st=0 bufi=8261 size=8903
pts:518400 pts_time:5.76 dts:514800 dts_time:5.72 duration:0 duration_time:0 stream_index:0
[mpeg @ 0x55555aa566f0] buffer underflow st=0 bufi=1390 size=2052
pts:522000 pts_time:5.8 dts:518400 dts_time:5.76 duration:0 duration_time:0 stream_index:0
[mpeg @ 0x55555aa566f0] buffer underflow st=0 bufi=1370 size=2127
pts:525600 pts_time:5.84 dts:522000 dts_time:5.8 duration:0 duration_time:0 stream_index:0
[mpeg @ 0x55555aa566f0] buffer underflow st=0 bufi=1275 size=2984
pts:529200 pts_time:5.88 dts:525600 dts_time:5.84 duration:0 duration_time:0 stream_index:0
[mpeg @ 0x55555aa566f0] buffer underflow st=0 bufi=323 size=1862
pts:532800 pts_time:5.92 dts:529200 dts_time:5.88 duration:0 duration_time:0 stream_index:0
[mpeg @ 0x55555aa566f0] buffer underflow st=0 bufi=493 size=2532
pts:536400 pts_time:5.96 dts:532800 dts_time:5.92 duration:0 duration_time:0 stream_index:0
[mpeg @ 0x55555aa566f0] buffer underflow st=0 bufi=2 size=1856
pts:540000 pts_time:6 dts:536400 dts_time:5.96 duration:0 duration_time:0 stream_index:0
[mpeg @ 0x55555aa566f0] buffer underflow st=0 bufi=178 size=1963
pts:543600 pts_time:6.04 dts:540000 dts_time:6 duration:0 duration_time:0 stream_index:0
[mpeg @ 0x55555aa566f0] buffer underflow st=0 bufi=247 size=2842
[mpeg @ 0x55555aa566f0] buffer underflow st=0 bufi=2288 size=2842
pts:547200 pts_time:6.08 dts:543600 dts_time:6.04 duration:0 duration_time:0 stream_index:0
[mpeg @ 0x55555aa566f0] buffer underflow st=0 bufi=1478 size=1817
pts:550800 pts_time:6.12 dts:547200 dts_time:6.08 duration:0 duration_time:0 stream_index:0
[mpeg @ 0x55555aa566f0] buffer underflow st=0 bufi=1693 size=2045
pts:554400 pts_time:6.16 dts:550800 dts_time:6.12 duration:0 duration_time:0 stream_index:0
[mpeg @ 0x55555aa566f0] buffer underflow st=0 bufi=1668 size=3019
pts:558000 pts_time:6.2 dts:554400 dts_time:6.16 duration:0 duration_time:0 stream_index:0
[mpeg @ 0x55555aa566f0] buffer underflow st=0 bufi=681 size=10045
[mpeg @ 0x55555aa566f0] buffer underflow st=0 bufi=2722 size=10045
[mpeg @ 0x55555aa566f0] buffer underflow st=0 bufi=4763 size=10045
[mpeg @ 0x55555aa566f0] buffer underflow st=0 bufi=6804 size=10045
[mpeg @ 0x55555aa566f0] buffer underflow st=0 bufi=8845 size=10045
pts:561600 pts_time:6.24 dts:558000 dts_time:6.2 duration:0 duration_time:0 stream_index:0
[mpeg @ 0x55555aa566f0] buffer underflow st=0 bufi=832 size=2830
pts:565200 pts_time:6.28 dts:561600 dts_time:6.24 duration:0 duration_time:0 stream_index:0
[mpeg @ 0x55555aa566f0] buffer underflow st=0 bufi=34 size=2443
[mpeg @ 0x55555aa566f0] buffer underflow st=0 bufi=2075 size=2443
pts:568800 pts_time:6.32 dts:565200 dts_time:6.28 duration:0 duration_time:0 stream_index:0
[mpeg @ 0x55555aa566f0] buffer underflow st=0 bufi=1664 size=1988
pts:572400 pts_time:6.36 dts:568800 dts_time:6.32 duration:0 duration_time:0 stream_index:0
[mpeg @ 0x55555aa566f0] buffer underflow st=0 bufi=1708 size=2478
pts:576000 pts_time:6.4 dts:572400 dts_time:6.36 duration:0 duration_time:0 stream_index:0
[mpeg @ 0x55555aa566f0] buffer underflow st=0 bufi=1262 size=2343
pts:579600 pts_time:6.44 dts:576000 dts_time:6.4 duration:0 duration_time:0 stream_index:0
[mpeg @ 0x55555aa566f0] buffer underflow st=0 bufi=951 size=2432
pts:583200 pts_time:6.48 dts:579600 dts_time:6.44 duration:0 duration_time:0 stream_index:0
[mpeg @ 0x55555aa566f0] buffer underflow st=0 bufi=551 size=2319
pts:586800 pts_time:6.52 dts:583200 dts_time:6.48 duration:0 duration_time:0 stream_index:0
[mpeg @ 0x55555aa566f0] buffer underflow st=0 bufi=264 size=2880
[mpeg @ 0x55555aa566f0] buffer underflow st=0 bufi=2305 size=2880
pts:590400 pts_time:6.56 dts:586800 dts_time:6.52 duration:0 duration_time:0 stream_index:0
[mpeg @ 0x55555aa566f0] buffer underflow st=0 bufi=1457 size=2114
pts:594000 pts_time:6.6 dts:590400 dts_time:6.56 duration:0 duration_time:0 stream_index:0
[mpeg @ 0x55555aa566f0] buffer underflow st=0 bufi=1375 size=1904
pts:597600 pts_time:6.64 dts:594000 dts_time:6.6 duration:0 duration_time:0 stream_index:0
[mpeg @ 0x55555aa566f0] buffer underflow st=0 bufi=1503 size=2535
pts:601200 pts_time:6.68 dts:597600 dts_time:6.64 duration:0 duration_time:0 stream_index:0
[mpeg @ 0x55555aa566f0] buffer underflow st=0 bufi=1000 size=8909
[mpeg @ 0x55555aa566f0] buffer underflow st=0 bufi=3041 size=8909
[mpeg @ 0x55555aa566f0] buffer underflow st=0 bufi=5082 size=8909
[mpeg @ 0x55555aa566f0] buffer underflow st=0 bufi=7123 size=8909
pts:604800 pts_time:6.72 dts:601200 dts_time:6.68 duration:0 duration_time:0 stream_index:0
[mpeg @ 0x55555aa566f0] buffer underflow st=0 bufi=246 size=3106
[mpeg @ 0x55555aa566f0] buffer underflow st=0 bufi=2287 size=3106
pts:608400 pts_time:6.76 dts:604800 dts_time:6.72 duration:0 duration_time:0 stream_index:0
[mpeg @ 0x55555aa566f0] buffer underflow st=0 bufi=1213 size=2911
pts:612000 pts_time:6.8 dts:608400 dts_time:6.76 duration:0 duration_time:0 stream_index:0
[mpeg @ 0x55555aa566f0] buffer underflow st=0 bufi=334 size=1979
pts:615600 pts_time:6.84 dts:612000 dts_time:6.8 duration:0 duration_time:0 stream_index:0
[mpeg @ 0x55555aa566f0] buffer underflow st=0 bufi=387 size=1834
pts:619200 pts_time:6.88 dts:615600 dts_time:6.84 duration:0 duration_time:0 stream_index:0
[mpeg @ 0x55555aa566f0] buffer underflow st=0 bufi=585 size=3233
[mpeg @ 0x55555aa566f0] buffer underflow st=0 bufi=2626 size=3233
pts:622800 pts_time:6.92 dts:619200 dts_time:6.88 duration:0 duration_time:0 stream_index:0
[mpeg @ 0x55555aa566f0] buffer underflow st=0 bufi=1425 size=1942
pts:626400 pts_time:6.96 dts:622800 dts_time:6.92 duration:0 duration_time:0 stream_index:0
[mpeg @ 0x55555aa566f0] buffer underflow st=0 bufi=1515 size=1926
pts:630000 pts_time:7 dts:626400 dts_time:6.96 duration:0 duration_time:0 stream_index:0
[mpeg @ 0x55555aa566f0] buffer underflow st=0 bufi=1621 size=2515
pts:633600 pts_time:7.04 dts:630000 dts_time:7 duration:0 duration_time:0 stream_index:0
[mpeg @ 0x55555aa566f0] buffer underflow st=0 bufi=1138 size=1905
pts:637200 pts_time:7.08 dts:633600 dts_time:7.04 duration:0 duration_time:0 stream_index:0
[mpeg @ 0x55555aa566f0] buffer underflow st=0 bufi=1265 size=2174
pts:640800 pts_time:7.12 dts:637200 dts_time:7.08 duration:0 duration_time:0 stream_index:0
[mpeg @ 0x55555aa566f0] buffer underflow st=0 bufi=1123 size=3025
pts:644400 pts_time:7.16 dts:640800 dts_time:7.12 duration:0 duration_time:0 stream_index:0
[mpeg @ 0x55555aa566f0] buffer underflow st=0 bufi=130 size=10378
[mpeg @ 0x55555aa566f0] buffer underflow st=0 bufi=2171 size=10378
[mpeg @ 0x55555aa566f0] buffer underflow st=0 bufi=4212 size=10378
[mpeg @ 0x55555aa566f0] buffer underflow st=0 bufi=6253 size=10378
[mpeg @ 0x55555aa566f0] buffer underflow st=0 bufi=8294 size=10378
[mpeg @ 0x55555aa566f0] buffer underflow st=0 bufi=10335 size=10378
pts:648000 pts_time:7.2 dts:644400 dts_time:7.16 duration:0 duration_time:0 stream_index:0
[mpeg @ 0x55555aa566f0] buffer underflow st=0 bufi=1989 size=3135
pts:651600 pts_time:7.24 dts:648000 dts_time:7.2 duration:0 duration_time:0 stream_index:0
[mpeg @ 0x55555aa566f0] buffer underflow st=0 bufi=886 size=2391
pts:655200 pts_time:7.28 dts:651600 dts_time:7.24 duration:0 duration_time:0 stream_index:0
[mpeg @ 0x55555aa566f0] buffer underflow st=0 bufi=527 size=3458
[mpeg @ 0x55555aa566f0] buffer underflow st=0 bufi=2568 size=3458
pts:658800 pts_time:7.32 dts:655200 dts_time:7.28 duration:0 duration_time:0 stream_index:0
[mpeg @ 0x55555aa566f0] buffer underflow st=0 bufi=1142 size=1989
pts:662400 pts_time:7.36 dts:658800 dts_time:7.32 duration:0 duration_time:0 stream_index:0
[mpeg @ 0x55555aa566f0] buffer underflow st=0 bufi=1185 size=3205
pts:666000 pts_time:7.4 dts:662400 dts_time:7.36 duration:0 duration_time:0 stream_index:0
[mpeg @ 0x55555aa566f0] buffer underflow st=0 bufi=12 size=2734
[mpeg @ 0x55555aa566f0] buffer underflow st=0 bufi=2053 size=2734
pts:669600 pts_time:7.44 dts:666000 dts_time:7.4 duration:0 duration_time:0 stream_index:0
[mpeg @ 0x55555aa566f0] buffer underflow st=0 bufi=1351 size=2405
pts:673200 pts_time:7.48 dts:669600 dts_time:7.44 duration:0 duration_time:0 stream_index:0
[mpeg @ 0x55555aa566f0] buffer underflow st=0 bufi=978 size=2977
pts:676800 pts_time:7.52 dts:673200 dts_time:7.48 duration:0 duration_time:0 stream_index:0
[mpeg @ 0x55555aa566f0] buffer underflow st=0 bufi=21 size=2687
[mpeg @ 0x55555aa566f0] buffer underflow st=0 bufi=2062 size=2687
pts:680400 pts_time:7.56 dts:676800 dts_time:7.52 duration:0 duration_time:0 stream_index:0
[mpeg @ 0x55555aa566f0] buffer underflow st=0 bufi=1407 size=2039
pts:684000 pts_time:7.6 dts:680400 dts_time:7.56 duration:0 duration_time:0 stream_index:0
[mpeg @ 0x55555aa566f0] buffer underflow st=0 bufi=1400 size=3529
[mpeg @ 0x55555aa566f0] buffer underflow st=0 bufi=3441 size=3529
pts:687600 pts_time:7.64 dts:684000 dts_time:7.6 duration:0 duration_time:0 stream_index:0
[mpeg @ 0x55555aa566f0] buffer underflow st=0 bufi=1944 size=8895
[mpeg @ 0x55555aa566f0] buffer underflow st=0 bufi=3985 size=8895
[mpeg @ 0x55555aa566f0] buffer underflow st=0 bufi=6026 size=8895
[mpeg @ 0x55555aa566f0] buffer underflow st=0 bufi=8067 size=8895
pts:691200 pts_time:7.68 dts:687600 dts_time:7.64 duration:0 duration_time:0 stream_index:0
[mpeg @ 0x55555aa566f0] buffer underflow st=0 bufi=1204 size=1745
pts:694800 pts_time:7.72 dts:691200 dts_time:7.68 duration:0 duration_time:0 stream_index:0
[mpeg @ 0x55555aa566f0] buffer underflow st=0 bufi=1491 size=1811
pts:698400 pts_time:7.76 dts:694800 dts_time:7.72 duration:0 duration_time:0 stream_index:0
[mpeg @ 0x55555aa566f0] buffer underflow st=0 bufi=1712 size=1943
pts:702000 pts_time:7.8 dts:698400 dts_time:7.76 duration:0 duration_time:0 stream_index:0
[mpeg @ 0x55555aa566f0] buffer underflow st=0 bufi=1801 size=2272
pts:705600 pts_time:7.84 dts:702000 dts_time:7.8 duration:0 duration_time:0 stream_index:0
[mpeg @ 0x55555aa566f0] buffer underflow st=0 bufi=1561 size=2639
pts:709200 pts_time:7.88 dts:705600 dts_time:7.84 duration:0 duration_time:0 stream_index:0
[mpeg @ 0x55555aa566f0] buffer underflow st=0 bufi=954 size=1411
pts:712800 pts_time:7.92 dts:709200 dts_time:7.88 duration:0 duration_time:0 stream_index:0
[mpeg @ 0x55555aa566f0] buffer underflow st=0 bufi=1575 size=1605
pts:716400 pts_time:7.96 dts:712800 dts_time:7.92 duration:0 duration_time:0 stream_index:0
[mpeg @ 0x55555aa566f0] buffer underflow st=0 bufi=2002 size=2564
pts:720000 pts_time:8 dts:716400 dts_time:7.96 duration:0 duration_time:0 stream_index:0
[mpeg @ 0x55555aa566f0] buffer underflow st=0 bufi=1470 size=1818
pts:723600 pts_time:8.04 dts:720000 dts_time:8 duration:0 duration_time:0 stream_index:0
[mpeg @ 0x55555aa566f0] buffer underflow st=0 bufi=1684 size=2036
pts:727200 pts_time:8.08 dts:723600 dts_time:8.04 duration:0 duration_time:0 stream_index:0
[mpeg @ 0x55555aa566f0] buffer underflow st=0 bufi=1680 size=3187
pts:730800 pts_time:8.12 dts:727200 dts_time:8.08 duration:0 duration_time:0 stream_index:0
[mpeg @ 0x55555aa566f0] buffer underflow st=0 bufi=525 size=9992
[mpeg @ 0x55555aa566f0] buffer underflow st=0 bufi=2566 size=9992
[mpeg @ 0x55555aa566f0] buffer underflow st=0 bufi=4607 size=9992
[mpeg @ 0x55555aa566f0] buffer underflow st=0 bufi=6648 size=9992
[mpeg @ 0x55555aa566f0] buffer underflow st=0 bufi=8689 size=9992
pts:734400 pts_time:8.16 dts:730800 dts_time:8.12 duration:0 duration_time:0 stream_index:0
[mpeg @ 0x55555aa566f0] buffer underflow st=0 bufi=729 size=3093
[mpeg @ 0x55555aa566f0] buffer underflow st=0 bufi=2770 size=3093
pts:738000 pts_time:8.2 dts:734400 dts_time:8.16 duration:0 duration_time:0 stream_index:0
[mpeg @ 0x55555aa566f0] buffer underflow st=0 bufi=1709 size=2879
pts:741600 pts_time:8.24 dts:738000 dts_time:8.2 duration:0 duration_time:0 stream_index:0
[mpeg @ 0x55555aa566f0] buffer underflow st=0 bufi=862 size=2072
pts:745200 pts_time:8.28 dts:741600 dts_time:8.24 duration:0 duration_time:0 stream_index:0
[mpeg @ 0x55555aa566f0] buffer underflow st=0 bufi=822 size=1670
pts:748800 pts_time:8.32 dts:745200 dts_time:8.28 duration:0 duration_time:0 stream_index:0
[mpeg @ 0x55555aa566f0] buffer underflow st=0 bufi=1184 size=3263
[mpeg @ 0x55555aa566f0] buffer underflow st=0 bufi=3225 size=3263
pts:752400 pts_time:8.36 dts:748800 dts_time:8.32 duration:0 duration_time:0 stream_index:0
[mpeg @ 0x55555aa566f0] buffer underflow st=0 bufi=1994 size=2274
pts:756000 pts_time:8.4 dts:752400 dts_time:8.36 duration:0 duration_time:0 stream_index:0
[mpeg @ 0x55555aa566f0] buffer underflow st=0 bufi=1752 size=1874
pts:759600 pts_time:8.44 dts:756000 dts_time:8.4 duration:0 duration_time:0 stream_index:0
[mpeg @ 0x55555aa566f0] buffer underflow st=0 bufi=1910 size=2682
pts:763200 pts_time:8.48 dts:759600 dts_time:8.44 duration:0 duration_time:0 stream_index:0
[mpeg @ 0x55555aa566f0] buffer underflow st=0 bufi=1260 size=2148
pts:766800 pts_time:8.52 dts:763200 dts_time:8.48 duration:0 duration_time:0 stream_index:0
[mpeg @ 0x55555aa566f0] buffer underflow st=0 bufi=1144 size=1849
pts:770400 pts_time:8.56 dts:766800 dts_time:8.52 duration:0 duration_time:0 stream_index:0
[mpeg @ 0x55555aa566f0] buffer underflow st=0 bufi=1327 size=3021
pts:774000 pts_time:8.6 dts:770400 dts_time:8.56 duration:0 duration_time:0 stream_index:0
[mpeg @ 0x55555aa566f0] buffer underflow st=0 bufi=338 size=8977
[mpeg @ 0x55555aa566f0] buffer underflow st=0 bufi=2379 size=8977
[mpeg @ 0x55555aa566f0] buffer underflow st=0 bufi=4420 size=8977
[mpeg @ 0x55555aa566f0] buffer underflow st=0 bufi=6461 size=8977
[mpeg @ 0x55555aa566f0] buffer underflow st=0 bufi=8502 size=8977
pts:777600 pts_time:8.64 dts:774000 dts_time:8.6 duration:0 duration_time:0 stream_index:0
[mpeg @ 0x55555aa566f0] buffer underflow st=0 bufi=1557 size=2066
pts:781200 pts_time:8.68 dts:777600 dts_time:8.64 duration:0 duration_time:0 stream_index:0
[mpeg @ 0x55555aa566f0] buffer underflow st=0 bufi=1523 size=2582
pts:784800 pts_time:8.72 dts:781200 dts_time:8.68 duration:0 duration_time:0 stream_index:0
[mpeg @ 0x55555aa566f0] buffer underflow st=0 bufi=973 size=1530
pts:788400 pts_time:8.76 dts:784800 dts_time:8.72 duration:0 duration_time:0 stream_index:0
[mpeg @ 0x55555aa566f0] buffer underflow st=0 bufi=1475 size=2506
pts:792000 pts_time:8.8 dts:788400 dts_time:8.76 duration:0 duration_time:0 stream_index:0
[mpeg @ 0x55555aa566f0] buffer underflow st=0 bufi=1001 size=2520
pts:795600 pts_time:8.84 dts:792000 dts_time:8.8 duration:0 duration_time:0 stream_index:0
[mpeg @ 0x55555aa566f0] buffer underflow st=0 bufi=513 size=1935
pts:799200 pts_time:8.88 dts:795600 dts_time:8.84 duration:0 duration_time:0 stream_index:0
[mpeg @ 0x55555aa566f0] buffer underflow st=0 bufi=610 size=1917
pts:802800 pts_time:8.92 dts:799200 dts_time:8.88 duration:0 duration_time:0 stream_index:0
[mpeg @ 0x55555aa566f0] buffer underflow st=0 bufi=725 size=2722
pts:806400 pts_time:8.96 dts:802800 dts_time:8.92 duration:0 duration_time:0 stream_index:0
[mpeg @ 0x55555aa566f0] buffer underflow st=0 bufi=35 size=1845
pts:810000 pts_time:9 dts:806400 dts_time:8.96 duration:0 duration_time:0 stream_index:0
[mpeg @ 0x55555aa566f0] buffer underflow st=0 bufi=210 size=2060
pts:813600 pts_time:9.04 dts:810000 dts_time:9 duration:0 duration_time:0 stream_index:0
[mpeg @ 0x55555aa566f0] buffer underflow st=0 bufi=182 size=2666
[mpeg @ 0x55555aa566f0] buffer underflow st=0 bufi=2223 size=2666
pts:817200 pts_time:9.08 dts:813600 dts_time:9.04 duration:0 duration_time:0 stream_index:0
[mpeg @ 0x55555aa566f0] buffer underflow st=0 bufi=1589 size=10134
[mpeg @ 0x55555aa566f0] buffer underflow st=0 bufi=3630 size=10134
[mpeg @ 0x55555aa566f0] buffer underflow st=0 bufi=5671 size=10134
[mpeg @ 0x55555aa566f0] buffer underflow st=0 bufi=7712 size=10134
[mpeg @ 0x55555aa566f0] buffer underflow st=0 bufi=9753 size=10134
pts:820800 pts_time:9.12 dts:817200 dts_time:9.08 duration:0 duration_time:0 stream_index:0
[mpeg @ 0x55555aa566f0] buffer underflow st=0 bufi=1651 size=2630
pts:824400 pts_time:9.16 dts:820800 dts_time:9.12 duration:0 duration_time:0 stream_index:0
[mpeg @ 0x55555aa566f0] buffer underflow st=0 bufi=1053 size=2604
pts:828000 pts_time:9.2 dts:824400 dts_time:9.16 duration:0 duration_time:0 stream_index:0
[mpeg @ 0x55555aa566f0] buffer underflow st=0 bufi=481 size=2586
[mpeg @ 0x55555aa566f0] buffer underflow st=0 bufi=2522 size=2586
pts:831600 pts_time:9.24 dts:828000 dts_time:9.2 duration:0 duration_time:0 stream_index:0
pts:835200 pts_time:9.28 dts:831600 dts_time:9.24 duration:0 duration_time:0 stream_index:0
[mpeg @ 0x55555aa566f0] buffer underflow st=0 bufi=138 size=3915
[mpeg @ 0x55555aa566f0] buffer underflow st=0 bufi=2179 size=3915
pts:838800 pts_time:9.32 dts:835200 dts_time:9.28 duration:0 duration_time:0 stream_index:0
[mpeg @ 0x55555aa566f0] buffer underflow st=0 bufi=296 size=2598
[mpeg @ 0x55555aa566f0] buffer underflow st=0 bufi=2337 size=2598
pts:842400 pts_time:9.36 dts:838800 dts_time:9.32 duration:0 duration_time:0 stream_index:0
[mpeg @ 0x55555aa566f0] buffer underflow st=0 bufi=1771 size=2249
pts:846000 pts_time:9.4 dts:842400 dts_time:9.36 duration:0 duration_time:0 stream_index:0
[mpeg @ 0x55555aa566f0] buffer underflow st=0 bufi=1554 size=2761
pts:849600 pts_time:9.44 dts:846000 dts_time:9.4 duration:0 duration_time:0 stream_index:0
[mpeg @ 0x55555aa566f0] buffer underflow st=0 bufi=825 size=2798
pts:853200 pts_time:9.48 dts:849600 dts_time:9.44 duration:0 duration_time:0 stream_index:0
[mpeg @ 0x55555aa566f0] buffer underflow st=0 bufi=59 size=2024
pts:856800 pts_time:9.52 dts:853200 dts_time:9.48 duration:0 duration_time:0 stream_index:0
[mpeg @ 0x55555aa566f0] buffer underflow st=0 bufi=67 size=3741
[mpeg @ 0x55555aa566f0] buffer underflow st=0 bufi=2108 size=3741
pts:860400 pts_time:9.56 dts:856800 dts_time:9.52 duration:0 duration_time:0 stream_index:0
[mpeg @ 0x55555aa566f0] buffer underflow st=0 bufi=399 size=8846
[mpeg @ 0x55555aa566f0] buffer underflow st=0 bufi=2440 size=8846
[mpeg @ 0x55555aa566f0] buffer underflow st=0 bufi=4481 size=8846
[mpeg @ 0x55555aa566f0] buffer underflow st=0 bufi=6522 size=8846
[mpeg @ 0x55555aa566f0] buffer underflow st=0 bufi=8563 size=8846
pts:864000 pts_time:9.6 dts:860400 dts_time:9.56 duration:0 duration_time:0 stream_index:0
[mpeg @ 0x55555aa566f0] buffer underflow st=0 bufi=1749 size=2988
pts:867600 pts_time:9.64 dts:864000 dts_time:9.6 duration:0 duration_time:0 stream_index:0
[mpeg @ 0x55555aa566f0] buffer underflow st=0 bufi=793 size=3401
[mpeg @ 0x55555aa566f0] buffer underflow st=0 bufi=2834 size=3401
pts:871200 pts_time:9.68 dts:867600 dts_time:9.64 duration:0 duration_time:0 stream_index:0
[mpeg @ 0x55555aa566f0] buffer underflow st=0 bufi=1465 size=2237
pts:874800 pts_time:9.72 dts:871200 dts_time:9.68 duration:0 duration_time:0 stream_index:0
[mpeg @ 0x55555aa566f0] buffer underflow st=0 bufi=1260 size=2043
pts:878400 pts_time:9.76 dts:874800 dts_time:9.72 duration:0 duration_time:0 stream_index:0
[mpeg @ 0x55555aa566f0] buffer underflow st=0 bufi=1249 size=3160
pts:882000 pts_time:9.8 dts:878400 dts_time:9.76 duration:0 duration_time:0 stream_index:0
[mpeg @ 0x55555aa566f0] buffer underflow st=0 bufi=121 size=2146
pts:885600 pts_time:9.84 dts:882000 dts_time:9.8 duration:0 duration_time:0 stream_index:0
[mpeg @ 0x55555aa566f0] buffer underflow st=0 bufi=7 size=2136
[mpeg @ 0x55555aa566f0] buffer underflow st=0 bufi=2048 size=2136
pts:889200 pts_time:9.88 dts:885600 dts_time:9.84 duration:0 duration_time:0 stream_index:0
[mpeg @ 0x55555aa566f0] buffer underflow st=0 bufi=1944 size=2896
pts:892800 pts_time:9.92 dts:889200 dts_time:9.88 duration:0 duration_time:0 stream_index:0
[mpeg @ 0x55555aa566f0] buffer underflow st=0 bufi=1080 size=1996
[mpeg @ 0x55555aa566f0] buffer underflow st=0 bufi=1116 size=2163
pts:896400 pts_time:9.96 dts:892800 dts_time:9.92 duration:0 duration_time:0 stream_index:0
pts:900000 pts_time:10 dts:896400 dts_time:9.96 duration:0 duration_time:0 stream_index:0
